#!OML:ASF X:\für Bonn\!DataBase\2005_08_10_Bjorn_Final\c3d\bjorn.ASF
:FULLY-SPECIFIED
:DEGREES
233
root -2.05521 18.7192 10.1125 -199.968 -246.921 -207.201
lowerback -2.56169 4.74585 7.28226
upperback 5.81265 5.92909 1.21666
thorax 8.19615 3.35147 -2.15211
lowerneck -4.19244 1.43656 5.9476
upperneck 8.45286 1.92668 -4.59062
head 3.64312 0.983175 -2.51337
rclavicle 7.68303e-014 2.46493e-014
rhumerus -30.0232 18.9141 -103.099
rradius 78.3277
rwrist -6.93307
rhand -17.3229 22.4802
rfingers 7.12502
rthumb 8.92375 -7.31105
lclavicle 7.68303e-014 2.46493e-014
lhumerus -58.9548 -23.8334 100.547
lradius 82.3311
lwrist -3.24978
lhand -44.3479 -20.5849
lfingers 7.12502
lthumb -17.1561 8.67764
rfemur 13.6911 -9.83374 14.4534
rtibia 25.7321
rfoot 7.64048 13.4681
rtoes -38.824
lfemur -36.0971 10.8762 -29.9508
ltibia 37.1225
lfoot -12.3807 -4.53977
ltoes 0.438692
234
root -1.76307 18.727 10.243 -201.372 -247.337 -208.702
lowerback -2.88602 4.81673 7.39337
upperback 5.69851 5.98868 1.2344
thorax 8.27917 3.38297 -2.16389
lowerneck -3.56394 1.37241 5.98106
upperneck 7.98993 1.84715 -4.42865
head 3.35232 0.953963 -2.45972
rclavicle -8.36883e-014 9.14409e-015
rhumerus -30.5388 19.5609 -103.287
rradius 78.7787
rwrist -6.44741
rhand -16.7334 22.1091
rfingers 7.12502
rthumb 9.49259 -7.65705
lclavicle -8.36883e-014 9.14409e-015
lhumerus -59.0803 -23.7615 100.421
lradius 82.7402
lwrist -2.78527
lhand -44.5114 -21.0011
lfingers 7.12502
lthumb -17.3135 8.24776
rfemur 13.609 -9.63367 14.5752
rtibia 27
rfoot 9.48315 13.9733
rtoes -38.7188
lfemur -35.7612 11.3298 -30.0621
ltibia 35.7756
lfoot -11.8751 -5.48208
ltoes 2.53274
235
root -1.47324 18.7214 10.3716 -202.867 -247.785 -210.341
lowerback -3.24366 4.83605 7.53703
upperback 5.59013 5.97446 1.22141
thorax 8.38788 3.38192 -2.2312
lowerneck -2.91657 1.34165 5.97101
upperneck 7.38267 1.80829 -4.19481
head 3.01266 0.943178 -2.37117
rclavicle -1.09332e-014 -1.27222e-014
rhumerus -31.0573 20.0964 -103.548
rradius 79.0593
rwrist -5.74957
rhand -16.4905 22.3356
rfingers 7.12502
rthumb 9.72693 -7.41977
lclavicle -1.09332e-014 -1.27222e-014
lhumerus -59.0368 -23.5678 100.153
lradius 83.1498
lwrist -2.41283
lhand -44.5974 -21.6722
lfingers 7.12502
lthumb -17.3962 7.56934
rfemur 13.3758 -9.44811 14.7293
rtibia 28.4291
rfoot 11.1632 14.3716
rtoes -37.6865
lfemur -35.5111 11.6039 -30.1101
ltibia 34.8357
lfoot -11.3466 -5.93984
ltoes 3.83604
236
root -1.1831 18.7014 10.4985 -204.15 -248.25 -211.728
lowerback -3.59169 4.84688 7.55457
upperback 5.52015 5.95848 1.18575
thorax 8.51993 3.37492 -2.25291
lowerneck -2.39244 1.31015 5.84314
upperneck 6.74665 1.7661 -3.91966
head 2.68829 0.925516 -2.2488
rclavicle -1.78906e-015 -3.06128e-014
rhumerus -31.5756 20.5251 -103.783
rradius 79.1622
rwrist -5.00428
rhand -16.5673 23.2288
rfingers 7.12502
rthumb 9.65282 -6.53005
lclavicle -1.78906e-015 -3.06128e-014
lhumerus -58.8253 -23.3454 99.8445
lradius 83.5911
lwrist -2.07898
lhand -44.6444 -22.6172
lfingers 7.12502
lthumb -17.4414 6.62035
rfemur 13.0522 -9.22151 14.7379
rtibia 30.041
rfoot 12.4675 14.6891
rtoes -36.1201
lfemur -35.2235 11.6864 -30.1908
ltibia 34.2648
lfoot -10.978 -5.76953
ltoes 3.94752
237
root -0.894251 18.667 10.6255 -205.147 -248.823 -212.732
lowerback -3.87506 4.80067 7.37011
upperback 5.5034 5.88924 1.10046
thorax 8.64758 3.33324 -2.22768
lowerneck -2.23873 1.32591 5.68432
upperneck 6.52546 1.77998 -3.64772
head 2.57802 0.935099 -2.12576
rclavicle -2.38542e-015 -7.95139e-016
rhumerus -32.0769 20.8785 -104.004
rradius 79.0962
rwrist -4.27293
rhand -16.9244 24.5427
rfingers 7.12502
rthumb 9.30828 -5.23185
lclavicle -2.38542e-015 -7.95139e-016
lhumerus -58.5145 -22.9895 99.4525
lradius 84.0607
lwrist -1.88158
lhand -44.6226 -23.65
lfingers 7.12502
lthumb -17.4205 5.58937
rfemur 12.7116 -8.99663 14.5339
rtibia 31.8543
rfoot 13.2458 14.8786
rtoes -34.3081
lfemur -34.7954 11.5249 -30.3813
ltibia 34.0286
lfoot -10.7571 -5.27828
ltoes 3.34595
